<svg width="20" height="20" viewBox="0 0 20 20" fill="none" xmlns="http://www.w3.org/2000/svg">
<path d="M10.202 18.9088C8.19551 18.9115 6.24645 18.239 4.66857 16.9995C3.09068 15.76 1.97576 14.0256 1.50326 12.0755C1.48231 12.0366 1.47057 11.9934 1.46894 11.9493C1.46732 11.9052 1.47586 11.8613 1.4939 11.8209C1.51194 11.7806 1.539 11.745 1.57299 11.7168C1.60699 11.6886 1.647 11.6686 1.68996 11.6583C1.73291 11.648 1.77765 11.6478 1.82073 11.6575C1.8638 11.6673 1.90406 11.6868 1.9384 11.7145C1.97274 11.7423 2.00024 11.7776 2.01878 11.8177C2.03731 11.8578 2.04639 11.9016 2.04531 11.9458C2.48182 13.7327 3.4931 15.3268 4.9237 16.4831C6.35431 17.6395 8.12507 18.294 9.96381 18.346C11.8026 18.3981 13.6075 17.8449 15.1013 16.7714C16.595 15.6979 17.6949 14.1636 18.2319 12.4042C18.2551 12.3343 18.3042 12.276 18.369 12.2411C18.4339 12.2063 18.5097 12.1976 18.5807 12.2168C18.6506 12.24 18.709 12.2891 18.7438 12.354C18.7787 12.4188 18.7874 12.4946 18.7682 12.5657C18.2162 14.4058 17.0836 16.018 15.5396 17.1613C13.9956 18.3046 12.1232 18.9176 10.202 18.9088Z" fill="#244886" stroke="#244886" stroke-width="0.6"/>
<path d="M19.147 14.1522C19.094 14.1513 19.0422 14.1357 18.9974 14.1072C18.9527 14.0787 18.9166 14.0384 18.8933 13.9908L18.3685 12.8375L17.2671 13.4545C17.2017 13.4883 17.1258 13.4958 17.055 13.4754C16.9843 13.455 16.924 13.4083 16.8865 13.3449C16.8534 13.2801 16.8459 13.2052 16.8657 13.1351C16.8855 13.065 16.931 13.0051 16.9932 12.9672L18.357 12.2031C18.3906 12.1847 18.4276 12.1732 18.4657 12.1693C18.5038 12.1653 18.5423 12.169 18.579 12.1801C18.6152 12.1923 18.6487 12.2116 18.6774 12.2368C18.7061 12.2621 18.7295 12.2928 18.7462 12.3271L19.4094 13.7457C19.4385 13.8133 19.4407 13.8894 19.4155 13.9586C19.3903 14.0277 19.3397 14.0846 19.2739 14.1176C19.2348 14.1388 19.1914 14.1506 19.147 14.1522ZM18.6367 8.17525C18.5745 8.17365 18.5146 8.15202 18.4657 8.11357C18.4169 8.07512 18.3818 8.02192 18.3656 7.96189C17.9291 6.17495 16.9179 4.58081 15.4873 3.4245C14.0567 2.26818 12.2859 1.61369 10.4471 1.56161C8.6084 1.50954 6.80344 2.06276 5.30968 3.13625C3.81592 4.20974 2.71604 5.74408 2.17909 7.50345C2.15587 7.57333 2.10679 7.63168 2.04192 7.66653C1.97705 7.70138 1.90131 7.71009 1.83022 7.69086C1.76034 7.66764 1.70199 7.61856 1.66714 7.55369C1.63229 7.48882 1.62359 7.41308 1.64281 7.34199C2.21537 5.46539 3.38836 3.82874 4.98151 2.6836C6.57466 1.53847 8.49979 0.948215 10.461 1.00357C12.4222 1.05892 14.311 1.75681 15.837 2.98998C17.3631 4.22315 18.4419 5.92335 18.9077 7.82926C18.9237 7.9014 18.9113 7.97692 18.8732 8.04023C18.8351 8.10353 18.7742 8.1498 18.703 8.16948L18.6367 8.17525Z" fill="#244886" stroke="#244886" stroke-width="0.6"/>
<path d="M1.91939 7.73436C1.89384 7.73315 1.8686 7.7283 1.84443 7.71994C1.8082 7.70774 1.77475 7.68846 1.74604 7.66322C1.71733 7.63797 1.69393 7.60727 1.6772 7.5729L1.0054 6.15434C0.992987 6.09111 1.00211 6.02554 1.03133 5.9681C1.06054 5.91066 1.10815 5.86466 1.16656 5.83745C1.22497 5.81023 1.29082 5.80337 1.35358 5.81795C1.41635 5.83254 1.47243 5.86773 1.51285 5.91791L2.04625 7.07121L3.15054 6.4542C3.21282 6.4373 3.27898 6.44179 3.33841 6.46695C3.39784 6.4921 3.44711 6.53647 3.47834 6.59295C3.50957 6.64942 3.52095 6.71475 3.51065 6.77846C3.50036 6.84217 3.46899 6.90058 3.42156 6.94435L2.05779 7.69688C2.01555 7.72083 1.96794 7.73372 1.91939 7.73436ZM12.1751 15.0953H8.10684C7.64333 15.0938 7.18819 14.9716 6.78631 14.7407C6.6997 14.69 6.62101 14.6268 6.55277 14.5532C5.47732 13.3192 6.72288 11.471 6.77766 11.3817C7.08689 10.9195 7.51121 10.5458 8.00881 10.2976C8.29535 10.1549 8.60876 10.0744 8.92857 10.0611C8.98189 10.0613 9.03504 10.0671 9.08715 10.0784C9.81673 10.2852 10.5885 10.2922 11.3217 10.0986C11.3854 10.0857 11.4511 10.0857 11.5148 10.0986C11.8244 10.1343 12.1236 10.2324 12.3942 10.3869C12.8394 10.6311 13.2208 10.9768 13.5072 11.3961C13.5591 11.471 14.8075 13.3192 13.7292 14.5677C13.6609 14.6412 13.5822 14.7044 13.4956 14.7551C13.0925 14.9814 12.6374 15.0986 12.1751 15.0953ZM8.94587 10.632C8.70745 10.6427 8.47381 10.7026 8.25965 10.8079C7.84644 11.0144 7.49453 11.3255 7.23898 11.7104C7.23898 11.7277 6.18372 13.276 6.97373 14.1842C7.00087 14.2125 7.03194 14.2368 7.06599 14.2563C7.3819 14.4414 7.7407 14.5408 8.10684 14.5446H12.1751C12.5412 14.5408 12.9 14.4414 13.216 14.2563C13.2503 14.2385 13.2807 14.214 13.3053 14.1842C14.0982 13.276 13.0545 11.7277 13.0458 11.7104C12.8099 11.3586 12.4936 11.0681 12.1232 10.8627C11.9169 10.7476 11.6893 10.676 11.4543 10.6522C10.6313 10.8689 9.7653 10.8619 8.94587 10.632ZM10.1424 9.08949C9.66043 9.09006 9.1891 8.94765 8.78807 8.68029C8.38704 8.41293 8.07431 8.03262 7.88947 7.58749C7.70463 7.14236 7.65597 6.6524 7.74965 6.1796C7.84333 5.70681 8.07514 5.27242 8.41576 4.93141C8.75637 4.59039 9.19048 4.35806 9.66316 4.26382C10.1358 4.16958 10.6259 4.21766 11.0712 4.40198C11.5166 4.58629 11.8972 4.89856 12.1651 5.29928C12.4329 5.7 12.5759 6.17115 12.5759 6.65314C12.5751 7.29857 12.3186 7.91738 11.8625 8.37404C11.4064 8.83069 10.7878 9.08796 10.1424 9.08949ZM10.1424 4.76461C9.77106 4.76404 9.40788 4.87364 9.09883 5.07954C8.78978 5.28544 8.54875 5.57839 8.40624 5.92131C8.26374 6.26424 8.22615 6.64173 8.29825 7.00602C8.37035 7.37031 8.54889 7.70503 8.81128 7.96782C9.07366 8.23061 9.40811 8.40966 9.77229 8.48232C10.1365 8.55498 10.514 8.51798 10.8572 8.376C11.2003 8.23402 11.4936 7.99344 11.7 7.68471C11.9064 7.37598 12.0165 7.01297 12.0165 6.64161C12.0105 6.14804 11.8105 5.67665 11.4599 5.32924C11.1092 4.98183 10.636 4.78627 10.1424 4.7848V4.76461Z" fill="#244886" stroke="#244886" stroke-width="0.6"/>
</svg>
