<svg width="16" height="18" viewBox="0 0 16 18" fill="none" xmlns="http://www.w3.org/2000/svg">
<path d="M10.6907 7.67005C10.7549 7.61025 10.8064 7.53815 10.8421 7.45803C10.8778 7.37791 10.897 7.29142 10.8985 7.20373C10.9 7.11603 10.8839 7.02892 10.8511 6.94759C10.8182 6.86626 10.7693 6.79238 10.7073 6.73036C10.6453 6.66834 10.5714 6.61945 10.4901 6.5866C10.4087 6.55375 10.3216 6.53762 10.2339 6.53916C10.1462 6.54071 10.0598 6.55991 9.97963 6.5956C9.89952 6.6313 9.82741 6.68277 9.76761 6.74694L6.74575 9.76881L5.46559 8.48865C5.34178 8.37328 5.17802 8.31047 5.00881 8.31346C4.8396 8.31644 4.67816 8.38499 4.55849 8.50466C4.43882 8.62432 4.37027 8.78577 4.36729 8.95498C4.3643 9.12418 4.42711 9.28795 4.54248 9.41176L6.28419 11.1535C6.40666 11.2758 6.57266 11.3445 6.74575 11.3445C6.91883 11.3445 7.08484 11.2758 7.2073 11.1535L10.6907 7.67005Z" fill="#244886"/>
<path fill-rule="evenodd" clip-rule="evenodd" d="M9.46968 0.436593C8.89535 0.149476 8.26207 0 7.61998 0C6.97789 0 6.34461 0.149476 5.77029 0.436593L1.3237 2.65901C0.925884 2.85796 0.591332 3.16375 0.357534 3.54213C0.123737 3.92052 -6.57249e-05 4.35653 2.61764e-08 4.80132V11.3737C4.45256e-05 12.0753 0.178553 12.7654 0.518736 13.379C0.858919 13.9926 1.3496 14.5097 1.94462 14.8815L6.35115 17.636C6.73176 17.8739 7.17157 18 7.62042 18C8.06926 18 8.50907 17.8739 8.88969 17.636L13.2962 14.8815C13.8911 14.5096 14.3816 13.9925 14.7216 13.3789C15.0616 12.7652 15.24 12.0752 15.24 11.3737V4.80132C15.24 4.35653 15.1162 3.92052 14.8824 3.54213C14.6486 3.16375 14.3141 2.85796 13.9163 2.65901L9.46968 0.436593ZM6.35463 1.60441C6.74753 1.40804 7.18074 1.3058 7.61998 1.3058C8.05922 1.3058 8.49243 1.40804 8.88533 1.60441L13.3319 3.8277C13.7003 4.01232 13.9337 4.3894 13.9337 4.80132V11.3737C13.9336 11.8537 13.8115 12.3259 13.5787 12.7458C13.3459 13.1656 13.0102 13.5194 12.603 13.7737L8.19649 16.5274C8.02358 16.6353 7.82383 16.6926 7.61998 16.6926C7.41614 16.6926 7.21639 16.6353 7.04348 16.5274L2.63695 13.7737C2.2298 13.5194 1.89405 13.1656 1.66127 12.7458C1.42849 12.3259 1.30633 11.8537 1.30628 11.3737V4.80132C1.30628 4.3894 1.53967 4.01232 1.90804 3.8277L6.35463 1.60441Z" fill="#244886"/>
</svg>
