<svg width="20" height="20" viewBox="0 0 20 20" fill="none" xmlns="http://www.w3.org/2000/svg">
<path d="M4.203 13.3518C4.203 16.5483 6.80357 19.1488 10 19.1488C13.1965 19.1488 15.7971 16.5483 15.7971 13.3518C15.7971 10.1553 13.1965 7.55478 10 7.55478C6.80354 7.55478 4.203 10.1553 4.203 13.3518ZM6.58015 17.3056C6.8522 16.6215 7.32392 16.0351 7.93389 15.6228C8.54385 15.2106 9.26381 14.9915 10 14.9941C10.735 14.9971 11.4524 15.2185 12.0612 15.6301C12.6701 16.0417 13.1429 16.6249 13.4196 17.3058C12.4704 18.1287 11.2562 18.5818 9.99984 18.5817C8.74352 18.5817 7.52935 18.1286 6.58015 17.3056ZM8.32059 12.6001C8.32057 12.2679 8.41905 11.9431 8.6036 11.6669C8.78814 11.3907 9.05045 11.1754 9.35736 11.0482C9.66427 10.9211 10.002 10.8878 10.3278 10.9526C10.6536 11.0174 10.9529 11.1774 11.1878 11.4123C11.4227 11.6472 11.5827 11.9465 11.6475 12.2723C11.7123 12.5981 11.679 12.9358 11.5519 13.2428C11.4247 13.5497 11.2094 13.812 10.9332 13.9965C10.657 14.1811 10.3322 14.2796 10 14.2795C9.55475 14.279 9.12784 14.1019 8.81298 13.787C8.49811 13.4722 8.32099 13.0453 8.32049 12.6L8.32059 12.6001ZM10 8.12193C12.8838 8.12193 15.23 10.468 15.23 13.3518C15.231 14.6597 14.74 15.9201 13.8546 16.8827C13.5909 16.3173 13.206 15.8167 12.7273 15.4165C12.2486 15.0163 11.6878 14.7262 11.0845 14.5668C11.521 14.3263 11.8651 13.9474 12.0627 13.4898C12.2603 13.0322 12.3001 12.522 12.1759 12.0393C12.0517 11.5566 11.7705 11.1289 11.3766 10.8236C10.9827 10.5182 10.4985 10.3525 10.0001 10.3525C9.50169 10.3525 9.01744 10.5182 8.62354 10.8236C8.22965 11.1289 7.94847 11.5566 7.82427 12.0393C7.70007 12.522 7.73989 13.0322 7.93746 13.4898C8.13503 13.9474 8.47915 14.3263 8.91564 14.5668C8.31237 14.7262 7.75154 15.0163 7.27289 15.4165C6.79424 15.8168 6.40949 16.3175 6.14592 16.883C5.26032 15.9204 4.76923 14.6599 4.77023 13.3518C4.77016 10.4679 7.11628 8.12193 10 8.12193ZM12.7547 3.00133C12.7361 2.94439 12.7001 2.89476 12.6516 2.85957C12.6032 2.82437 12.5449 2.80542 12.485 2.80542H12.4844L10.7903 2.80864L10.2699 1.19644C10.2515 1.13937 10.2154 1.08961 10.1669 1.05431C10.1184 1.01902 10.06 1 10 1C9.94006 1 9.88163 1.01902 9.83314 1.05431C9.78465 1.08961 9.74861 1.13937 9.73018 1.19644L9.20978 2.80864L7.51566 2.80542H7.5152C7.45528 2.80542 7.39689 2.82442 7.34843 2.85967C7.29997 2.89492 7.26392 2.94462 7.24546 3.00164C7.227 3.05865 7.22707 3.12004 7.24567 3.17701C7.26427 3.23398 7.30044 3.28359 7.34899 3.31872L8.72146 4.31184L8.19486 5.92202C8.17622 5.97903 8.17613 6.04047 8.19461 6.09753C8.21309 6.15459 8.24919 6.20432 8.29771 6.23958C8.34623 6.27483 8.40468 6.29379 8.46465 6.29374C8.52463 6.29368 8.58304 6.27461 8.6315 6.23927L10 5.24087L11.3687 6.23927C11.4171 6.27461 11.4755 6.29368 11.5355 6.29374C11.5955 6.29379 11.654 6.27483 11.7025 6.23958C11.751 6.20432 11.7871 6.15459 11.8056 6.09753C11.824 6.04047 11.824 5.97903 11.8053 5.92202L11.2787 4.31184L12.6512 3.31872C12.6998 3.28356 12.736 3.2339 12.7546 3.17687C12.7732 3.11984 12.7732 3.05838 12.7547 3.00133ZM10.7786 3.97364C10.73 4.00886 10.6937 4.05862 10.6752 4.11576C10.6566 4.17289 10.6567 4.23444 10.6754 4.29153L10.9932 5.26334L10.1673 4.66075C10.1187 4.62534 10.0602 4.60626 10.0001 4.60626C9.94007 4.60626 9.88154 4.62534 9.83301 4.66075L9.0071 5.26334L9.32491 4.29153C9.34359 4.23444 9.34365 4.17289 9.3251 4.11576C9.30654 4.05862 9.27032 4.00886 9.22166 3.97364L8.39308 3.37423L9.41555 3.37622H9.41608C9.47606 3.37622 9.5345 3.3572 9.58298 3.32189C9.63147 3.28659 9.66752 3.23682 9.68594 3.17974L10 2.20668L10.3141 3.17974C10.3326 3.23682 10.3686 3.28659 10.4171 3.32189C10.4656 3.3572 10.524 3.37622 10.584 3.37622H10.5845L11.607 3.37423L10.7786 3.97364ZM2.78534 6.53752L2.73316 8.23082C2.73131 8.29077 2.74852 8.34976 2.78231 8.39932C2.8161 8.44887 2.86473 8.48644 2.92121 8.50662C2.97769 8.52679 3.03912 8.52854 3.09666 8.51161C3.1542 8.49468 3.20488 8.45994 3.24144 8.41238L4.27379 7.06919L5.86805 7.64208C5.92449 7.66234 5.9859 7.66418 6.04345 7.64735C6.101 7.63051 6.15173 7.59587 6.18836 7.5484C6.22498 7.50092 6.24562 7.44306 6.2473 7.38312C6.24898 7.32319 6.23162 7.26426 6.19771 7.21481L5.2393 5.81788L6.27683 4.47866C6.31356 4.43124 6.33432 4.3734 6.33611 4.31345C6.3379 4.2535 6.32064 4.19452 6.2868 4.145C6.25296 4.09548 6.2043 4.05796 6.14779 4.03784C6.09129 4.01772 6.02986 4.01603 5.97234 4.03302L4.34756 4.51279L3.39446 3.11228C3.36071 3.06271 3.31212 3.02511 3.25566 3.00489C3.1992 2.98468 3.13779 2.98288 3.08024 2.99975C3.0227 3.01663 2.97198 3.05132 2.93539 3.09883C2.8988 3.14634 2.87821 3.20422 2.87658 3.26417L2.83089 4.95765L1.2043 5.43126C1.14671 5.44802 1.09592 5.48262 1.05924 5.53007C1.02255 5.57752 1.00185 5.63538 1.00012 5.69533C0.998385 5.75528 1.01571 5.81424 1.04959 5.86373C1.08348 5.91322 1.13218 5.95069 1.1887 5.97076L2.78534 6.53752ZM3.18816 5.44434C3.24584 5.42755 3.29669 5.39287 3.33339 5.34532C3.37009 5.29776 3.39074 5.23978 3.39237 5.17973L3.41995 4.15765L3.99518 5.00295C4.02897 5.05262 4.07767 5.09027 4.13424 5.11048C4.19081 5.13068 4.25234 5.1324 4.30995 5.11539L5.29055 4.82579L4.66435 5.63398C4.62755 5.68147 4.60678 5.73941 4.60505 5.79946C4.60331 5.85951 4.62068 5.91856 4.65467 5.9681L5.23316 6.81121L4.27092 6.46542C4.21438 6.4451 4.15285 6.44327 4.09521 6.46017C4.03756 6.47708 3.98677 6.51186 3.95016 6.5595L3.32711 7.37017L3.35859 6.34816C3.36043 6.28812 3.34317 6.22905 3.30927 6.17945C3.27538 6.12986 3.22662 6.0923 3.17001 6.07221L2.20631 5.73018L3.18816 5.44434ZM18.7959 5.43126L17.1692 4.95765L17.1235 3.26417C17.1219 3.20422 17.1013 3.14634 17.0647 3.09883C17.0281 3.05132 16.9774 3.01663 16.9198 2.99975C16.8623 2.98288 16.8009 2.98468 16.7444 3.00489C16.688 3.02511 16.6394 3.06271 16.6056 3.11228L15.6525 4.51279L14.0278 4.03302C13.9703 4.01603 13.9089 4.01772 13.8524 4.03784C13.7958 4.05796 13.7472 4.09548 13.7133 4.145C13.6795 4.19452 13.6622 4.2535 13.664 4.31345C13.6658 4.3734 13.6866 4.43124 13.7233 4.47866L14.7608 5.81788L13.8024 7.21481C13.7685 7.26426 13.7512 7.32319 13.7528 7.38312C13.7545 7.44306 13.7752 7.50092 13.8118 7.5484C13.8484 7.59587 13.8991 7.63051 13.9567 7.64735C14.0142 7.66418 14.0757 7.66234 14.1321 7.64208L15.7264 7.06919L16.7587 8.41238C16.7953 8.45994 16.8459 8.49468 16.9035 8.51161C16.961 8.52854 17.0224 8.52679 17.0789 8.50662C17.1354 8.48644 17.184 8.44887 17.2178 8.39932C17.2516 8.34976 17.2688 8.29077 17.267 8.23082L17.2148 6.53752L18.8113 5.97076C18.8678 5.95069 18.9165 5.91322 18.9504 5.86373C18.9843 5.81424 19.0016 5.75528 18.9999 5.69533C18.9981 5.63538 18.9775 5.57752 18.9408 5.53007C18.9041 5.48262 18.8533 5.44802 18.7957 5.43126H18.7959ZM16.8302 6.07246C16.7736 6.09255 16.7248 6.1301 16.6909 6.1797C16.657 6.22929 16.6398 6.28837 16.6416 6.34841L16.6731 7.37042L16.0501 6.55975C16.0134 6.51211 15.9627 6.47733 15.905 6.46042C15.8474 6.44351 15.7858 6.44535 15.7293 6.46567L14.767 6.81145L15.3455 5.96835C15.3795 5.91881 15.3969 5.85976 15.3952 5.79971C15.3934 5.73966 15.3727 5.68171 15.3359 5.63423L14.7097 4.82604L15.6903 5.11564C15.7479 5.13265 15.8094 5.13093 15.866 5.11072C15.9225 5.09052 15.9712 5.05286 16.005 5.0032L16.5803 4.1579L16.6078 5.17997C16.6095 5.24002 16.6301 5.29801 16.6668 5.34556C16.7035 5.39312 16.7544 5.42779 16.8121 5.44458L17.7938 5.73043L16.8302 6.07246Z" fill="#244886" stroke="#244886" stroke-width="0.4"/>
</svg>
